<svg xmlns="http://www.w3.org/2000/svg" xmlns:xlink="http://www.w3.org/1999/xlink" width="500" zoomAndPan="magnify" viewBox="0 0 375 374.999991" height="500" preserveAspectRatio="xMidYMid meet" version="1.0"><defs><clipPath id="d9ce80efcf"><path d="M 70.78125 71 L 269 71 L 269 273 L 70.78125 273 Z M 70.78125 71 " clip-rule="nonzero"/></clipPath><clipPath id="43fc52300a"><path d="M 229 0 L 304.03125 0 L 304.03125 86 L 229 86 Z M 229 0 " clip-rule="nonzero"/></clipPath></defs><path fill="#0d4d72" d="M 253.035156 206.222656 C 250.535156 211.757812 247.855469 217 244.988281 221.953125 C 242.183594 236.132812 234.878906 251.238281 221.667969 266.40625 C 191.917969 300.566406 138 301.742188 103.390625 287.226562 C 133.3125 335.460938 183.816406 374.980469 183.816406 374.980469 C 183.816406 374.980469 296.804688 286.566406 296.804688 196.167969 C 296.804688 170.273438 288.097656 146.421875 273.453125 127.378906 C 270.019531 157.394531 263.160156 183.890625 253.035156 206.222656 Z M 253.035156 206.222656 " fill-opacity="1" fill-rule="nonzero"/><g clip-path="url(#d9ce80efcf)"><path fill="#0d4d72" d="M 157.582031 272.203125 C 175.355469 271.71875 191.972656 265.871094 206.640625 254.984375 C 214.496094 249.167969 221.796875 241.910156 228.421875 233.25 C 235.046875 224.585938 240.996094 214.523438 246.152344 203.101562 C 256.433594 180.433594 263.578125 152.398438 266.695312 119.378906 C 268.097656 104.359375 268.683594 88.300781 268.335938 71.234375 C 264.894531 84.371094 261.105469 97.457031 256.953125 110.054688 C 249.929688 131.289062 241.824219 151.203125 232.519531 167.886719 C 218.117188 193.738281 200.8125 211.84375 180.132812 215.167969 C 127.992188 223.523438 124.769531 145.925781 180.480469 142.808594 C 197.519531 141.863281 214.675781 149.164062 227.214844 161.84375 C 235.148438 147.171875 242.730469 128.96875 249.78125 107.679688 C 250.0625 106.816406 250.351562 105.941406 250.636719 105.0625 C 231.917969 91.3125 208.820312 83.195312 183.816406 83.195312 C 121.410156 83.195312 70.832031 133.777344 70.832031 196.167969 C 70.832031 196.980469 70.832031 201.171875 71.074219 203.382812 C 76.285156 250.882812 113.367188 273.449219 157.582031 272.203125 Z M 157.582031 272.203125 " fill-opacity="1" fill-rule="nonzero"/></g><g clip-path="url(#43fc52300a)"><path fill="#0d4d72" d="M 269.394531 39.996094 L 278.328125 83.820312 L 304.160156 85.3125 L 271.707031 0 L 229.636719 81.003906 L 255.46875 82.5 Z M 269.394531 39.996094 " fill-opacity="1" fill-rule="nonzero"/></g></svg>